<mxfile host="drawio-plugin" modified="2022-11-11T14:04:39.139Z" agent="5.0 (X11; Linux x86_64) AppleWebKit/537.36 (KHTML, like Gecko) Chrome/98.0.4758.102 Safari/537.36" version="15.5.4" etag="INu87eDBA_lZEs_zlTnX" type="embed"><diagram id="sXhMYNBWsn-728EYje_o" name="Página-1"><mxGraphModel dx="881" dy="723" grid="1" gridSize="10" guides="1" tooltips="1" connect="1" arrows="1" fold="1" page="1" pageScale="1" pageWidth="1169" pageHeight="827" math="0" shadow="0"><root><mxCell id="0"/><mxCell id="1" parent="0"/><mxCell id="72" style="edgeStyle=none;html=1;entryX=0;entryY=0.5;entryDx=0;entryDy=0;entryPerimeter=0;" parent="1" source="2" target="14" edge="1"><mxGeometry relative="1" as="geometry"/></mxCell><mxCell id="2" value="" style="outlineConnect=0;dashed=0;verticalLabelPosition=bottom;verticalAlign=top;align=center;html=1;shape=mxgraph.aws3.user;fillColor=#D2D3D3;gradientColor=none;" parent="1" vertex="1"><mxGeometry x="50" y="109" width="45" height="63" as="geometry"/></mxCell><mxCell id="11" value="Aplicação Parceiro" style="swimlane;" parent="1" vertex="1"><mxGeometry x="160" y="30" width="350" height="300" as="geometry"/></mxCell><mxCell id="20" style="edgeStyle=none;html=1;" parent="11" source="12" target="19" edge="1"><mxGeometry relative="1" as="geometry"/></mxCell><mxCell id="12" value="" style="strokeColor=#dddddd;shadow=1;strokeWidth=1;rounded=1;absoluteArcSize=1;arcSize=2;" parent="11" vertex="1"><mxGeometry x="180" y="80" width="140" height="60" as="geometry"/></mxCell><mxCell id="13" value="API &lt;br&gt;Responsáveis" style="sketch=0;dashed=0;connectable=0;html=1;fillColor=#5184F3;strokeColor=none;shape=mxgraph.gcp2.hexIcon;prIcon=apigee_sense;part=1;labelPosition=right;verticalLabelPosition=middle;align=left;verticalAlign=middle;spacingLeft=5;fontColor=#999999;fontSize=12;" parent="12" vertex="1"><mxGeometry y="0.5" width="44" height="39" relative="1" as="geometry"><mxPoint x="6" y="-19" as="offset"/></mxGeometry></mxCell><mxCell id="14" value="" style="sketch=0;pointerEvents=1;shadow=0;dashed=0;html=1;labelPosition=center;verticalLabelPosition=bottom;verticalAlign=top;align=center;fillColor=#b1ddf0;shape=mxgraph.mscae.intune.device_os;strokeColor=#10739e;" parent="11" vertex="1"><mxGeometry x="60" y="80" width="60" height="60" as="geometry"/></mxCell><mxCell id="18" value="" style="endArrow=classic;startArrow=classic;html=1;entryX=0;entryY=0.5;entryDx=0;entryDy=0;exitX=1;exitY=0.5;exitDx=0;exitDy=0;exitPerimeter=0;" parent="11" source="14" target="12" edge="1"><mxGeometry width="50" height="50" relative="1" as="geometry"><mxPoint x="130" y="147.27272727272725" as="sourcePoint"/><mxPoint x="210" y="220" as="targetPoint"/></mxGeometry></mxCell><mxCell id="19" value="" style="image;html=1;image=img/lib/clip_art/computers/Database_128x128.png" parent="11" vertex="1"><mxGeometry x="50" y="190" width="80" height="80" as="geometry"/></mxCell><mxCell id="73" style="edgeStyle=none;html=1;entryX=1;entryY=0.5;entryDx=0;entryDy=0;" parent="11" source="66" target="19" edge="1"><mxGeometry relative="1" as="geometry"/></mxCell><mxCell id="66" value="" style="strokeColor=#dddddd;shadow=1;strokeWidth=1;rounded=1;absoluteArcSize=1;arcSize=2;" parent="11" vertex="1"><mxGeometry x="180" y="200" width="140" height="60" as="geometry"/></mxCell><mxCell id="67" value="Webhook" style="sketch=0;dashed=0;connectable=0;html=1;fillColor=#5184F3;strokeColor=none;shape=mxgraph.gcp2.hexIcon;prIcon=apigee_sense;part=1;labelPosition=right;verticalLabelPosition=middle;align=left;verticalAlign=middle;spacingLeft=5;fontColor=#999999;fontSize=12;" parent="66" vertex="1"><mxGeometry y="0.5" width="44" height="39" relative="1" as="geometry"><mxPoint x="6" y="-19" as="offset"/></mxGeometry></mxCell><mxCell id="21" value="Plataforma Betha Cadastro Único" style="swimlane;" parent="1" vertex="1"><mxGeometry x="550" y="30" width="330" height="300" as="geometry"/></mxCell><mxCell id="29" style="edgeStyle=none;html=1;" parent="21" source="22" target="28" edge="1"><mxGeometry relative="1" as="geometry"/></mxCell><mxCell id="22" value="" style="strokeColor=#dddddd;shadow=1;strokeWidth=1;rounded=1;absoluteArcSize=1;arcSize=2;" parent="21" vertex="1"><mxGeometry x="190" y="80" width="130" height="60" as="geometry"/></mxCell><mxCell id="23" value="API &lt;br&gt;Cadastro&amp;nbsp;&lt;br&gt;Único" style="sketch=0;dashed=0;connectable=0;html=1;fillColor=#5184F3;strokeColor=none;shape=mxgraph.gcp2.hexIcon;prIcon=apigee_sense;part=1;labelPosition=right;verticalLabelPosition=middle;align=left;verticalAlign=middle;spacingLeft=5;fontColor=#999999;fontSize=12;" parent="22" vertex="1"><mxGeometry y="0.5" width="44" height="39" relative="1" as="geometry"><mxPoint x="5" y="-19.5" as="offset"/></mxGeometry></mxCell><mxCell id="36" style="edgeStyle=none;html=1;entryX=0;entryY=0.5;entryDx=0;entryDy=0;" parent="21" source="26" target="22" edge="1"><mxGeometry relative="1" as="geometry"/></mxCell><mxCell id="26" value="" style="outlineConnect=0;dashed=0;verticalLabelPosition=bottom;verticalAlign=top;align=center;html=1;shape=mxgraph.aws3.run_command;fillColor=#759C3E;gradientColor=none;" parent="21" vertex="1"><mxGeometry x="30" y="88.75" width="70" height="42.5" as="geometry"/></mxCell><mxCell id="28" value="" style="shape=mxgraph.cisco.directors.distributed_director;html=1;pointerEvents=1;dashed=0;fillColor=#036897;strokeColor=#ffffff;strokeWidth=2;verticalLabelPosition=bottom;verticalAlign=top;align=center;outlineConnect=0;" parent="21" vertex="1"><mxGeometry x="209.5" y="190" width="91" height="64" as="geometry"/></mxCell><mxCell id="27" style="edgeStyle=none;html=1;entryX=0;entryY=0.5;entryDx=0;entryDy=0;entryPerimeter=0;" parent="1" source="12" target="26" edge="1"><mxGeometry relative="1" as="geometry"/></mxCell><mxCell id="38" value="Produtos Betha" style="swimlane;" parent="1" vertex="1"><mxGeometry x="289.5" y="370" width="420" height="380" as="geometry"/></mxCell><mxCell id="55" style="edgeStyle=none;html=1;entryX=0.233;entryY=1.1;entryDx=0;entryDy=0;entryPerimeter=0;" parent="38" source="30" target="51" edge="1"><mxGeometry relative="1" as="geometry"/></mxCell><mxCell id="30" value="Contábil" style="rounded=0;whiteSpace=wrap;html=1;" parent="38" vertex="1"><mxGeometry x="70" y="290" width="120" height="60" as="geometry"/></mxCell><mxCell id="56" style="edgeStyle=none;html=1;entryX=0.767;entryY=1.1;entryDx=0;entryDy=0;entryPerimeter=0;" parent="38" source="32" target="51" edge="1"><mxGeometry relative="1" as="geometry"/></mxCell><mxCell id="32" value="Compras" style="rounded=0;whiteSpace=wrap;html=1;" parent="38" vertex="1"><mxGeometry x="235" y="290" width="120" height="60" as="geometry"/></mxCell><mxCell id="46" value="" style="aspect=fixed;html=1;points=[];align=center;image;fontSize=12;image=img/lib/azure2/containers/Container_Instances.svg;" parent="38" vertex="1"><mxGeometry x="178" y="34" width="64" height="69" as="geometry"/></mxCell><mxCell id="57" style="edgeStyle=none;html=1;exitX=0.444;exitY=0.009;exitDx=0;exitDy=0;exitPerimeter=0;" parent="38" source="48" target="46" edge="1"><mxGeometry relative="1" as="geometry"/></mxCell><mxCell id="48" value="Operações (Reponsáveis)" style="swimlane;fontStyle=0;childLayout=stackLayout;horizontal=1;startSize=26;horizontalStack=0;resizeParent=1;resizeParentMax=0;resizeLast=0;collapsible=1;marginBottom=0;align=center;fontSize=14;" parent="38" vertex="1"><mxGeometry x="130" y="150" width="180" height="116" as="geometry"/></mxCell><mxCell id="49" value="Insersções" style="text;strokeColor=none;fillColor=none;spacingLeft=4;spacingRight=4;overflow=hidden;rotatable=0;points=[[0,0.5],[1,0.5]];portConstraint=eastwest;fontSize=12;" parent="48" vertex="1"><mxGeometry y="26" width="180" height="30" as="geometry"/></mxCell><mxCell id="50" value="Alterações" style="text;strokeColor=none;fillColor=none;spacingLeft=4;spacingRight=4;overflow=hidden;rotatable=0;points=[[0,0.5],[1,0.5]];portConstraint=eastwest;fontSize=12;" parent="48" vertex="1"><mxGeometry y="56" width="180" height="30" as="geometry"/></mxCell><mxCell id="51" value="Remoções" style="text;strokeColor=none;fillColor=none;spacingLeft=4;spacingRight=4;overflow=hidden;rotatable=0;points=[[0,0.5],[1,0.5]];portConstraint=eastwest;fontSize=12;" parent="48" vertex="1"><mxGeometry y="86" width="180" height="30" as="geometry"/></mxCell><mxCell id="58" style="edgeStyle=none;html=1;" parent="1" source="46" target="26" edge="1"><mxGeometry relative="1" as="geometry"><Array as="points"><mxPoint x="615" y="439"/></Array></mxGeometry></mxCell><mxCell id="69" style="edgeStyle=none;html=1;entryX=1;entryY=0.25;entryDx=0;entryDy=0;" parent="1" source="28" target="38" edge="1"><mxGeometry relative="1" as="geometry"><Array as="points"><mxPoint x="805" y="465"/></Array></mxGeometry></mxCell><mxCell id="70" style="edgeStyle=none;html=1;entryX=1;entryY=0.5;entryDx=0;entryDy=0;exitX=-0.038;exitY=0.656;exitDx=0;exitDy=0;exitPerimeter=0;" parent="1" target="66" edge="1"><mxGeometry relative="1" as="geometry"><mxPoint x="756.0419999999999" y="261.98400000000004" as="sourcePoint"/><mxPoint x="480" y="260" as="targetPoint"/></mxGeometry></mxCell><mxCell id="71" value="Produto Parceiro" style="edgeLabel;html=1;align=center;verticalAlign=middle;resizable=0;points=[];" parent="70" vertex="1" connectable="0"><mxGeometry x="-0.5635" y="4" relative="1" as="geometry"><mxPoint x="-14" y="-4" as="offset"/></mxGeometry></mxCell></root></mxGraphModel></diagram></mxfile>